<?xml version="1.0"?>
<svg xmlns="http://www.w3.org/2000/svg" xmlns:xlink="http://www.w3.org/1999/xlink" xmlns:svgjs="http://svgjs.com/svgjs" version="1.1" width="512" height="512" x="0" y="0" viewBox="0 0 12.7 12.7" style="enable-background:new 0 0 512 512" xml:space="preserve" class=""><g transform="matrix(1,0,0,1,0,0)"><g xmlns="http://www.w3.org/2000/svg" id="g5881" fill-opacity=".98" transform="translate(-6.181 -129.275)"><g fill="#bfdbff"><path id="path2046" d="m16.130701 139.75365c-.44218 0-.806107.36252-.806107.80416 0 .44163.363927.80271.806107.80271.442181 0 .804663-.36108.804663-.80271 0-.44164-.362482-.80416-.804663-.80416z" font-variant-ligatures="normal" font-variant-position="normal" font-variant-caps="normal" font-variant-numeric="normal" font-variant-alternates="normal" font-feature-settings="normal" text-indent="0" text-align="start" text-decoration-line="none" text-decoration-style="solid" text-decoration-color="#000000" text-transform="none" text-orientation="mixed" white-space="normal" shape-padding="0" isolation="auto" mix-blend-mode="normal" solid-color="#000000" solid-opacity="1" vector-effect="none" paint-order="fill markers stroke" fill="#f0faff" data-original="#bfdbff" style="" class=""/><path id="path2035" d="m11.87847 140.08438c-.442181 0-.806107.36252-.806107.80416 0 .44163.363926.80271.806107.80271s.804663-.36108.804663-.80271c0-.44164-.362482-.80416-.804663-.80416z" font-variant-ligatures="normal" font-variant-position="normal" font-variant-caps="normal" font-variant-numeric="normal" font-variant-alternates="normal" font-feature-settings="normal" text-indent="0" text-align="start" text-decoration-line="none" text-decoration-style="solid" text-decoration-color="#000000" text-transform="none" text-orientation="mixed" white-space="normal" shape-padding="0" isolation="auto" mix-blend-mode="normal" solid-color="#000000" solid-opacity="1" vector-effect="none" paint-order="fill markers stroke" fill="#f0faff" data-original="#bfdbff" style="" class=""/><path id="path2023" d="m9.8045469 131.67339c-.142505-.00053-.253432.11936-.237107.25603l.5936461 5.13941c.01427.12441.129077.21488.258184.20348l6.521324-.57143c.122466-.0109.216118-.11017.216031-.2289v-4.56799c.000503-.1269-.105662-.23015-.237107-.2306z" font-variant-ligatures="normal" font-variant-position="normal" font-variant-caps="normal" font-variant-numeric="normal" font-variant-alternates="normal" font-feature-settings="normal" text-indent="0" text-align="start" text-decoration-line="none" text-decoration-style="solid" text-decoration-color="#000000" text-transform="none" text-orientation="mixed" white-space="normal" shape-padding="0" isolation="auto" mix-blend-mode="normal" solid-color="#000000" solid-opacity="1" vector-effect="none" paint-order="fill markers stroke" fill="#f0faff" data-original="#bfdbff" style="" class=""/></g><path id="rect4985" d="m7.4023078 129.27561c-.352865.0169-.327543.5461.02532.52917h1.4257531c.441372 2.49149.675996 5.20763.920874 7.40317-.549263.1323-.961699.6242-.961699 1.21233 0 .68966.561505 1.31356 1.2753751 1.2516l7.581965-.65784c.351635-.0299.306675-.5575-.04496-.52762l-7.581965.65836c-.3777181.0328-.7012491-.32078-.7012491-.7245 0-.4044.318352-.72089.7245031-.72089.0057 0 .0095-.003.01499-.003.0029-.00017.0054.001.0083.001l7.25227-.65836c.136186-.0126.240393-.12678.240296-.26355v-5.26169c.000556-.14617-.117896-.2651-.264067-.26562h-7.6868681l-.293523-1.75187c-.02149-.1277-.131992-.22104-.261483-.22066h-1.6484771c-.0085-.00053-.01686-.00053-.02532 0zm2.3006351 2.50166h1.7880041l.235645 1.35496-1.8639691.0801zm2.3259561 0h3.345532l-.128675 1.20355-2.985347.12867zm3.877282 0h1.146184v1.12603l-1.272791.0548zm1.146184 1.65675v1.12809l-1.459343.13901.129708-1.21026zm-1.863969.0796-.132809 1.23868-2.468066.23513-.235644-1.35289zm-3.370337.14366.240812 1.38079-1.971972.18759-.1653651-1.48725zm5.234306 1.43661v1.44125l-1.67225.15141.155029-1.44797zm-2.054139.19585-.155029 1.44539-1.921329.17415-.243396-1.39837zm-2.848404.27181.243396 1.39527-2.092379.18965-.155029-1.39371z" fill="#2296d4" font-variant-ligatures="normal" font-variant-position="normal" font-variant-caps="normal" font-variant-numeric="normal" font-variant-alternates="normal" font-feature-settings="normal" text-indent="0" text-align="start" text-decoration-line="none" text-decoration-style="solid" text-decoration-color="#000000" text-transform="none" text-orientation="mixed" white-space="normal" shape-padding="0" isolation="auto" mix-blend-mode="normal" solid-color="#000000" solid-opacity="1" vector-effect="none" paint-order="fill markers stroke" data-original="#57a4ff" style="" class=""/><path id="path4991" d="m11.878724 139.8009c-.597821 0-1.089844.49042-1.089844 1.08789 0 .59746.492023 1.08594 1.089844 1.08594.597822 0 1.087891-.48848 1.087891-1.08594 0-.59747-.490069-1.08789-1.087891-1.08789zm0 .5293c.312441 0 .558594.24771.558594.55859s-.246153.55664-.558594.55664-.560547-.24576-.560547-.55664.248106-.55859.560547-.55859z" fill="#2296d4" font-variant-ligatures="normal" font-variant-position="normal" font-variant-caps="normal" font-variant-numeric="normal" font-variant-alternates="normal" font-feature-settings="normal" text-indent="0" text-align="start" text-decoration-line="none" text-decoration-style="solid" text-decoration-color="#000000" text-transform="none" text-orientation="mixed" white-space="normal" shape-padding="0" isolation="auto" mix-blend-mode="normal" solid-color="#000000" solid-opacity="1" vector-effect="none" paint-order="fill markers stroke" data-original="#57a4ff" style="" class=""/><path id="circle5002" d="m16.154114 139.49035c-.597821 0-1.087891.49043-1.087891 1.08789 0 .59747.49007 1.08594 1.087891 1.08594s1.089844-.48847 1.089844-1.08594c0-.59746-.492023-1.08789-1.089844-1.08789zm0 .5293c.312441 0 .560547.24771.560547.55859s-.248106.55664-.560547.55664-.558594-.24576-.558594-.55664.246153-.55859.558594-.55859z" fill="#2296d4" font-variant-ligatures="normal" font-variant-position="normal" font-variant-caps="normal" font-variant-numeric="normal" font-variant-alternates="normal" font-feature-settings="normal" text-indent="0" text-align="start" text-decoration-line="none" text-decoration-style="solid" text-decoration-color="#000000" text-transform="none" text-orientation="mixed" white-space="normal" shape-padding="0" isolation="auto" mix-blend-mode="normal" solid-color="#000000" solid-opacity="1" vector-effect="none" paint-order="fill markers stroke" data-original="#57a4ff" style="" class=""/></g></g></svg>
