<svg clip-rule="evenodd" fill-rule="evenodd" height="512" image-rendering="optimizeQuality" shape-rendering="geometricPrecision" text-rendering="geometricPrecision" viewBox="0 0 512 512" width="512" xmlns="http://www.w3.org/2000/svg" xmlns:xlink="http://www.w3.org/1999/xlink" xmlns:xodm="http://www.corel.com/coreldraw/odm/2003"><linearGradient id="id0" gradientUnits="userSpaceOnUse" x1="67.83" x2="474.19" y1="82.42" y2="389.98"><stop offset="0" stop-color="#3acd01"/><stop offset="1" stop-color="#4be010"/></linearGradient><g id="Layer_x0020_1"><g id="_1639422498208"><path d="m256 0c141.39 0 256 114.61 256 256s-114.61 256-256 256-256-114.61-256-256 114.61-256 256-256z" fill="url(#id0)"/><path d="m256 119.53c80.56 0 145.87 52.29 145.87 116.8 0 77.65-144.76 164.26-155.92 155.53-9.6-7.5 16.67-35.95-15.57-40.53-58.67-8.38-120.25-50.14-120.25-115 0-64.51 65.31-116.8 145.87-116.8zm-84 154.05h28.79c4.18 0 7.6-3.42 7.6-7.6 0-4.51-2.87-8.25-7.6-8.25h-21.18v-48.18c0-4.18-3.42-7.6-7.61-7.6-4.51 0-8.24 2.87-8.24 7.6v56.43c0 4.72 3.73 7.6 8.24 7.6zm181.66-35.36c0-4.51-2.87-8.24-7.61-8.24h-21.17v-12.05h21.17c4.19 0 7.61-3.42 7.61-7.61 0-4.51-2.88-8.24-7.61-8.24h-28.78c-4.51 0-8.24 2.88-8.24 7.61v56.42c0 4.19 3.42 7.61 7.61 7.61h29.41c4.19 0 7.61-3.42 7.61-7.61 0-4.51-2.87-8.24-7.61-8.24h-21.17v-12.04h21.17c4.19 0 7.61-3.43 7.61-7.61zm-54.37 27.76v-56.42c0-4.19-3.42-7.61-7.61-7.61-4.51 0-8.24 2.87-8.24 7.61v33.12l-27.5-36.89c-1.31-2.29-3.79-3.84-6.6-3.84-4.51 0-8.25 2.87-8.25 7.61v56.42c0 4.73 3.73 7.61 8.25 7.61 4.18 0 7.6-3.43 7.6-7.61v-33.74l27.7 37.82c1.45 2.25 3.66 3.52 6.4 3.52 4.53 0 8.25-2.84 8.25-7.6zm-76.51 7.6c4.18 0 7.6-3.42 7.6-7.6v-56.42c0-4.19-3.42-7.61-7.6-7.61-4.51 0-8.25 2.87-8.25 7.61v56.42c0 4.73 3.74 7.6 8.25 7.6z" fill="#fff" fill-rule="nonzero"/></g></g></svg>