<svg clip-rule="evenodd" fill-rule="evenodd" height="512" image-rendering="optimizeQuality" shape-rendering="geometricPrecision" text-rendering="geometricPrecision" viewBox="0 0 512 512" width="512" xmlns="http://www.w3.org/2000/svg" xmlns:xlink="http://www.w3.org/1999/xlink" xmlns:xodm="http://www.corel.com/coreldraw/odm/2003"><linearGradient id="id0" gradientUnits="userSpaceOnUse" x1="67.83" x2="474.19" y1="82.42" y2="389.98"><stop offset="0" stop-color="#10658f"/><stop offset="1" stop-color="#007fc0"/></linearGradient><g id="Layer_x0020_1"><g id="_1639424913184"><path d="m256 0c141.39 0 256 114.61 256 256s-114.61 256-256 256-256-114.61-256-256 114.61-256 256-256z" fill="url(#id0)"/><g fill="#fff"><path d="m129.29 388.01h54.47v-176.01h-54.47z"/><path d="m156.27 188.95c17.79 0 32.22-14.55 32.22-32.48 0-17.94-14.43-32.48-32.22-32.48-17.8 0-32.22 14.54-32.22 32.48 0 17.93 14.42 32.48 32.22 32.48z"/><path d="m270.86 295.62c0-24.75 11.39-39.49 33.2-39.49 20.03 0 29.66 14.15 29.66 39.49v92.39h54.22s0-64.29 0-111.44-26.72-69.95-64.04-69.95c-37.33 0-53.04 29.09-53.04 29.09v-23.71h-52.26v176.01h52.26s0-65.28 0-92.39z"/></g></g></g></svg>