<svg clip-rule="evenodd" fill-rule="evenodd" height="512" image-rendering="optimizeQuality" shape-rendering="geometricPrecision" text-rendering="geometricPrecision" viewBox="0 0 512 512" width="512" xmlns="http://www.w3.org/2000/svg" xmlns:xlink="http://www.w3.org/1999/xlink" xmlns:xodm="http://www.corel.com/coreldraw/odm/2003"><linearGradient id="id0" gradientUnits="userSpaceOnUse" x1="67.83" x2="474.19" y1="82.42" y2="389.98"><stop offset="0" stop-color="#3a76f0"/><stop offset="1" stop-color="#00abeb"/></linearGradient><g id="Layer_x0020_1"><g id="_1639415320352"><path d="m256 0c141.39 0 256 114.61 256 256s-114.61 256-256 256-256-114.61-256-256 114.61-256 256-256z" fill="url(#id0)"/><path d="m224.79 129.74 2.92 11.83c-11.51 2.83-22.53 7.39-32.67 13.51l-6.26-10.44c11.18-6.75 23.32-11.78 36.01-14.9zm59.5 11.83c11.51 2.83 22.53 7.39 32.68 13.51l6.29-10.44c-11.19-6.76-23.35-11.78-36.05-14.9zm-139.65 47.2c-6.75 11.18-11.78 23.32-14.9 36.01l11.83 2.92c2.83-11.51 7.39-22.52 13.51-32.67zm-5.18 49.56-12.05-1.83c-1.96 12.92-1.96 26.06 0 38.98l12.05-1.83c-1.77-11.68-1.77-23.64 0-35.32zm177.51 118.57c-10.14 6.12-21.14 10.68-32.64 13.51l2.92 11.83c12.68-3.13 24.8-8.15 35.97-14.9zm55.57-83.25 12.06 1.83c1.95-12.92 1.95-26.06 0-38.98l-12.06 1.83c1.77 11.68 1.77 23.64 0 35.32zm-2.11 10.63c-2.83 11.51-7.39 22.52-13.51 32.67l10.44 6.3c6.76-11.2 11.78-23.35 14.9-36.05zm-96.77 88.26c-11.71 1.77-23.61 1.77-35.32 0l-1.83 12.05c12.92 1.96 26.06 1.96 38.98 0zm77.22-46.63c-7.03 9.52-15.45 17.93-24.97 24.95l7.23 9.82c10.51-7.73 19.8-16.99 27.56-27.47zm-24.97-164.79c9.52 7.02 17.94 15.44 24.97 24.97l9.82-7.32c-7.74-10.48-17-19.74-27.48-27.47zm-164.79 24.97c7.03-9.53 15.45-17.95 24.98-24.97l-7.32-9.82c-10.48 7.73-19.74 16.99-27.48 27.47zm195.8 8.94c6.12 10.14 10.68 21.14 13.51 32.63l11.83-2.92c-3.13-12.67-8.15-24.8-14.9-35.97zm-118.58-55.57c11.71-1.77 23.61-1.77 35.32 0l1.83-12.05c-12.92-1.96-26.06-1.96-38.98 0zm-70.96 224.45-25.18 5.87 5.87-25.18-11.86-2.78-5.88 25.18c-2.06 8.79 5.87 16.71 14.65 14.65l25.16-5.77zm-28.63-32.96 11.86 2.76 4.07-17.45c-5.93-9.96-10.34-20.74-13.11-31.98l-11.83 2.92c2.65 10.78 6.68 21.16 11.99 30.91zm39.44 30.48 2.76 11.87 12.85-2.99c9.74 5.31 20.13 9.34 30.91 11.99l2.92-11.83c-11.23-2.8-21.98-7.24-31.9-13.19zm-14.64-156.52c-18.59 33.65-17.42 74.75 3.04 107.3l-10.17 43.35 43.35-10.16c38.02 23.94 87.02 21.23 122.17-6.77 35.14-28 48.73-75.15 33.88-117.56-30.11-86.01-148.47-95.46-192.27-16.16z" fill="#fff" fill-rule="nonzero"/></g></g></svg>