<svg clip-rule="evenodd" fill-rule="evenodd" height="512" image-rendering="optimizeQuality" shape-rendering="geometricPrecision" text-rendering="geometricPrecision" viewBox="0 0 512 512" width="512" xmlns="http://www.w3.org/2000/svg" xmlns:xlink="http://www.w3.org/1999/xlink" xmlns:xodm="http://www.corel.com/coreldraw/odm/2003"><linearGradient id="id0" gradientUnits="userSpaceOnUse" x1="67.83" x2="474.19" y1="82.42" y2="389.98"><stop offset="0" stop-color="#178cc8"/><stop offset="1" stop-color="#00abeb"/></linearGradient><g id="Layer_x0020_1"><g id="_1639287748912"><path d="m256 0c141.39 0 256 114.61 256 256s-114.61 256-256 256-256-114.61-256-256 114.61-256 256-256z" fill="url(#id0)"/><path d="m257.46 151.92c47.3 2.78 74.99 23.58 77.68 43.01 1.32 12.69-7.12 22.56-21.77 22.56-21.39 0-23.57-28.51-60.41-28.51-16.61 0-30.64 6.91-30.64 21.89.01 31.31 118.03 13.12 118.03 82.07 0 39.74-31.8 65.78-79.29 65.78-41.76 0-83.74-18.93-83.53-51.53.08-9.84 7.41-18.86 17.17-18.86 24.6 0 24.37 36.54 63.53 36.54 27.46 0 36.84-14.99 36.84-25.43 0-37.73-118.72-14.59-118.72-85.54 0-38.4 31.54-64.88 81.11-61.98zm25.91 248.22c75.77 45.8 164.47-41.88 116.89-118.44 17.77-101.5-71.05-188.35-171.37-169.7-75.57-46.04-164.67 41.35-117.28 118.06-18.09 100.73 70.21 189.44 171.76 170.08z" fill="#fff"/></g></g></svg>