<svg clip-rule="evenodd" fill-rule="evenodd" height="512" image-rendering="optimizeQuality" shape-rendering="geometricPrecision" text-rendering="geometricPrecision" viewBox="0 0 512 512" width="512" xmlns="http://www.w3.org/2000/svg" xmlns:xlink="http://www.w3.org/1999/xlink" xmlns:xodm="http://www.corel.com/coreldraw/odm/2003"><linearGradient id="id0" gradientUnits="userSpaceOnUse" x1="67.83" x2="474.19" y1="82.42" y2="389.98"><stop offset="0" stop-color="#00a055"/><stop offset="1" stop-color="#49b57d"/></linearGradient><g id="Layer_x0020_1"><g id="_1639421047136"><path d="m256 0c141.39 0 256 114.61 256 256s-114.61 256-256 256-256-114.61-256-256 114.61-256 256-256z" fill="url(#id0)"/><path d="m346.8 239.07c-49.24-29.24-131.59-32.32-178.53-17.7-7.69 2.32-15.39-2.3-17.7-9.23-2.31-7.69 2.31-15.39 9.24-17.7 54.63-16.16 144.67-13.09 201.62 20.78 6.92 3.85 9.23 13.08 5.38 20-3.84 5.39-13.08 7.7-20.01 3.85zm-1.53 43.1c-3.85 5.38-10.77 7.7-16.16 3.85-41.56-25.4-104.66-33.09-153.14-17.7-6.16 1.54-13.08-1.55-14.62-7.7-1.54-6.16 1.54-13.08 7.69-14.62 56.18-16.93 125.44-8.46 173.15 20.77 4.61 2.32 6.92 10.02 3.08 15.4zm-18.47 42.32c-3.08 4.62-8.47 6.16-13.08 3.08-36.17-22.31-81.58-26.93-135.45-14.62-5.38 1.53-10-2.3-11.54-6.93-1.54-5.38 2.31-10 6.93-11.54 58.48-13.08 109.27-7.69 149.29 16.93 5.39 2.31 6.16 8.46 3.85 13.08zm-70.8-222.4c-85 0-153.91 68.91-153.91 153.92 0 85 68.91 153.9 153.91 153.9s153.91-68.9 153.91-153.9c0-85.01-68.91-153.92-153.91-153.92z" fill="#fff"/></g></g></svg>