<svg clip-rule="evenodd" fill-rule="evenodd" height="512" image-rendering="optimizeQuality" shape-rendering="geometricPrecision" text-rendering="geometricPrecision" viewBox="0 0 512 512" width="512" xmlns="http://www.w3.org/2000/svg" xmlns:xlink="http://www.w3.org/1999/xlink" xmlns:xodm="http://www.corel.com/coreldraw/odm/2003"><linearGradient id="id0" gradientUnits="userSpaceOnUse" x1="67.83" x2="474.19" y1="82.42" y2="389.98"><stop offset="0" stop-color="#e73d76"/><stop offset="1" stop-color="#ec6b5d"/></linearGradient><g id="Layer_x0020_1"><g id="_1639431048832"><path d="m256 0c141.39 0 256 114.61 256 256s-114.61 256-256 256-256-114.61-256-256 114.61-256 256-256z" fill="url(#id0)"/><path d="m206.02 227.8c81.33-28.03 52.59-120.12 60.83-117.38 53.25 26.03 113.12 82.83 113.12 168.03 0 65.32-50.64 123.06-124.25 123.06-65.29 2.96-120.62-47.54-123.58-112.83-3.08-67.7 60.16-117.08 60.16-104.89.56 6.94 6.45 44.01 13.72 44.01z" fill="#fff"/></g></g></svg>