<svg clip-rule="evenodd" fill-rule="evenodd" height="512" image-rendering="optimizeQuality" shape-rendering="geometricPrecision" text-rendering="geometricPrecision" viewBox="0 0 512 512" width="512" xmlns="http://www.w3.org/2000/svg" xmlns:xlink="http://www.w3.org/1999/xlink" xmlns:xodm="http://www.corel.com/coreldraw/odm/2003"><linearGradient id="id0" gradientUnits="userSpaceOnUse" x1="67.83" x2="474.19" y1="82.42" y2="389.98"><stop offset="0" stop-color="#5a3e85"/><stop offset="1" stop-color="#7c4cc4"/></linearGradient><g id="Layer_x0020_1"><g id="_1639420749328"><path d="m256 0c141.39 0 256 114.61 256 256s-114.61 256-256 256-256-114.61-256-256 114.61-256 256-256z" fill="url(#id0)"/><path d="m146.44 123.34-17.31 46.14v184.56h63.42v34.62h34.62l34.59-34.62h51.9l69.21-69.19v-161.51zm23.05 23.06h190.31v126.89l-40.37 40.38h-63.43l-34.58 34.58v-34.58h-51.93zm63.44 115.37h23.07v-69.2h-23.07zm63.43 0h23.07v-69.2h-23.07z" fill="#fff" fill-rule="nonzero"/></g></g></svg>