<svg clip-rule="evenodd" fill-rule="evenodd" height="512" image-rendering="optimizeQuality" shape-rendering="geometricPrecision" text-rendering="geometricPrecision" viewBox="0 0 512 512" width="512" xmlns="http://www.w3.org/2000/svg" xmlns:xlink="http://www.w3.org/1999/xlink" xmlns:xodm="http://www.corel.com/coreldraw/odm/2003"><linearGradient id="id0" gradientUnits="userSpaceOnUse" x1="67.83" x2="474.19" y1="82.42" y2="389.98"><stop offset="0" stop-color="#097ca6"/><stop offset="1" stop-color="#00aae1"/></linearGradient><g id="Layer_x0020_1"><g id="_1639427150624"><path d="m256 0c141.39 0 256 114.61 256 256s-114.61 256-256 256-256-114.61-256-256 114.61-256 256-256z" fill="url(#id0)"/><path d="m361.78 126.86c-41.39-1.33-69.42 22.03-84.1 70.11 20.16-8.67 45.31-8.9 42.2 20.71-1.38 16.03-32.43 74.72-48.25 74.72-19.45 0-31.71-98.42-34.19-114.12-5.38-34.01-19.67-49.89-42.91-47.66-21.7 1.99-69.22 49.35-87.83 65.69l14.06 18.11c13.38-9.36 21.2-14.08 23.42-14.08 38.26 0 37.61 184.85 97.04 184.85 59.26 0 161.34-141.95 163.93-198.6 1.77-38.92-12.69-58.81-43.37-59.73z" fill="#fff"/></g></g></svg>