<svg xmlns="http://www.w3.org/2000/svg" xmlns:xlink="http://www.w3.org/1999/xlink" viewBox="0 0 2000.82 1294.03"><defs><clipPath id="clip-path" transform="translate(343.75 218.11)"><rect width="1300" height="800" style="fill:none"/></clipPath><radialGradient id="radial-gradient" cx="943.08" cy="-13.49" r="316.7" gradientTransform="translate(131.25 728.26) rotate(-45)" gradientUnits="userSpaceOnUse"><stop offset="0" stop-color="#004"/><stop offset="0.22" stop-color="#1c1c58" stop-opacity="0.89"/><stop offset="0.54" stop-color="#686890" stop-opacity="0.59"/><stop offset="0.93" stop-color="#e4e4eb" stop-opacity="0.11"/><stop offset="1" stop-color="#fff" stop-opacity="0"/></radialGradient><radialGradient id="radial-gradient-2" cx="944.72" cy="205.7" r="192.36" gradientTransform="translate(131.25 728.26) rotate(-45)" gradientUnits="userSpaceOnUse"><stop offset="0" stop-color="#231f20"/><stop offset="1" stop-color="#fff"/></radialGradient><linearGradient id="linear-gradient" x1="752.36" y1="205.7" x2="1137.08" y2="205.7" gradientTransform="translate(131.25 728.26) rotate(-45)" gradientUnits="userSpaceOnUse"><stop offset="0" stop-opacity="0"/><stop offset="0.52" stop-color="#e56aff"/><stop offset="1" stop-color="#231f20" stop-opacity="0"/></linearGradient><radialGradient id="radial-gradient-3" cx="932.17" cy="199.74" r="316.7" gradientTransform="translate(-22.72 783) rotate(-45)" xlink:href="#radial-gradient"/><radialGradient id="radial-gradient-4" cx="933.81" cy="418.93" r="192.36" gradientTransform="translate(-22.72 783) rotate(-45)" xlink:href="#radial-gradient-2"/><linearGradient id="linear-gradient-2" x1="741.45" y1="418.93" x2="1126.17" y2="418.93" gradientTransform="translate(-22.72 783) rotate(-45)" xlink:href="#linear-gradient"/><radialGradient id="radial-gradient-5" cx="1145.4" cy="188.83" r="316.7" gradientTransform="translate(47.45 930.59) rotate(-45)" xlink:href="#radial-gradient"/><radialGradient id="radial-gradient-6" cx="1147.04" cy="408.02" r="192.36" gradientTransform="translate(47.45 930.59) rotate(-45)" xlink:href="#radial-gradient-2"/><linearGradient id="linear-gradient-3" x1="954.68" y1="408.02" x2="1339.4" y2="408.02" gradientTransform="translate(47.45 930.59) rotate(-45)" xlink:href="#linear-gradient"/><radialGradient id="radial-gradient-7" cx="1245.21" cy="-113.3" r="316.7" gradientTransform="translate(290.32 912.67) rotate(-45)" xlink:href="#radial-gradient"/><radialGradient id="radial-gradient-8" cx="1246.85" cy="105.89" r="192.36" gradientTransform="translate(290.32 912.67) rotate(-45)" xlink:href="#radial-gradient-2"/><linearGradient id="linear-gradient-4" x1="1054.49" y1="105.89" x2="1439.21" y2="105.89" gradientTransform="translate(290.32 912.67) rotate(-45)" xlink:href="#linear-gradient"/><radialGradient id="radial-gradient-9" cx="1571.58" cy="-315.53" r="324.32" gradientTransform="matrix(2.01, -0.32, 2.01, 0.32, -1639.62, 696.13)" xlink:href="#radial-gradient"/><radialGradient id="radial-gradient-10" cx="1573.26" cy="-91.07" r="196.98" gradientTransform="matrix(2.01, -0.32, 2.01, 0.32, -1639.62, 696.13)" xlink:href="#radial-gradient-2"/><linearGradient id="linear-gradient-5" x1="1376.29" y1="-91.07" x2="1770.24" y2="-91.07" gradientTransform="matrix(2.01, -0.32, 2.01, 0.32, -1639.62, 696.13)" xlink:href="#linear-gradient"/><radialGradient id="radial-gradient-11" cx="1285.32" cy="-73.07" r="325.99" gradientTransform="matrix(2.48, -0.32, 2.48, 0.32, -2462.12, 536.12)" xlink:href="#radial-gradient"/><radialGradient id="radial-gradient-12" cx="1287.01" cy="152.55" r="197.99" gradientTransform="matrix(2.48, -0.32, 2.48, 0.32, -2462.12, 536.12)" xlink:href="#radial-gradient-2"/><linearGradient id="linear-gradient-6" x1="1089.02" y1="152.55" x2="1485" y2="152.55" gradientTransform="matrix(2.48, -0.32, 2.48, 0.32, -2462.12, 536.12)" xlink:href="#linear-gradient"/><radialGradient id="radial-gradient-13" cx="991.73" cy="132.36" r="327.99" gradientTransform="matrix(3.4, -0.32, 3.4, 0.32, -3516.6, 581.43)" xlink:href="#radial-gradient"/><radialGradient id="radial-gradient-14" cx="993.43" cy="359.35" r="199.2" gradientTransform="matrix(3.4, -0.32, 3.4, 0.32, -3516.6, 581.43)" xlink:href="#radial-gradient-2"/><linearGradient id="linear-gradient-7" x1="794.23" y1="359.35" x2="1192.64" y2="359.35" gradientTransform="matrix(3.4, -0.32, 3.4, 0.32, -3516.6, 581.43)" xlink:href="#linear-gradient"/><radialGradient id="radial-gradient-15" cx="-368.22" cy="628.75" r="315.8" gradientTransform="translate(26.66 -205.02) rotate(-45)" xlink:href="#radial-gradient"/><radialGradient id="radial-gradient-16" cx="-366.58" cy="847.31" r="191.81" gradientTransform="translate(26.66 -205.02) rotate(-45)" xlink:href="#radial-gradient-2"/><linearGradient id="linear-gradient-8" x1="-558.4" y1="847.31" x2="-174.77" y2="847.31" gradientTransform="translate(26.66 -205.02) rotate(-45)" xlink:href="#linear-gradient"/><radialGradient id="radial-gradient-17" cx="-379.1" cy="841.37" r="315.8" gradientTransform="translate(-105.12 -575.69) rotate(-45)" gradientUnits="userSpaceOnUse"><stop offset="0" stop-color="#6a0094"/><stop offset="0.09" stop-color="#5a007e"/><stop offset="0.3" stop-color="#3a0051"/><stop offset="0.5" stop-color="#21002e"/><stop offset="0.69" stop-color="#0f0015"/><stop offset="0.86" stop-color="#040005"/><stop offset="1"/></radialGradient><linearGradient id="linear-gradient-9" x1="-569.27" y1="1059.94" x2="-185.65" y2="1059.94" gradientTransform="translate(-105.12 -575.69) rotate(-45)" xlink:href="#linear-gradient"/><radialGradient id="radial-gradient-18" cx="-166.47" cy="830.5" r="315.8" gradientTransform="translate(-460.4 -406.77) rotate(-45)" xlink:href="#radial-gradient"/><radialGradient id="radial-gradient-19" cx="-164.84" cy="1049.06" r="191.81" gradientTransform="translate(-460.4 -406.77) rotate(-45)" xlink:href="#radial-gradient-2"/><linearGradient id="linear-gradient-10" x1="-356.65" y1="1049.06" x2="26.97" y2="1049.06" gradientTransform="translate(-460.4 -406.77) rotate(-45)" xlink:href="#linear-gradient"/><radialGradient id="radial-gradient-20" cx="-66.95" cy="529.22" r="315.8" gradientTransform="translate(-417.27 177.91) rotate(-45)" xlink:href="#radial-gradient"/><radialGradient id="radial-gradient-21" cx="-65.31" cy="747.78" r="191.81" gradientTransform="translate(-417.27 177.91) rotate(-45)" xlink:href="#radial-gradient-2"/><linearGradient id="linear-gradient-11" x1="-257.12" y1="747.78" x2="126.5" y2="747.78" gradientTransform="translate(-417.27 177.91) rotate(-45)" xlink:href="#linear-gradient"/><radialGradient id="radial-gradient-22" cx="-700.36" cy="1720.69" r="323.4" gradientTransform="matrix(2.01, -0.32, 2.01, 0.32, -2521.21, -151.23)" xlink:href="#radial-gradient"/><radialGradient id="radial-gradient-23" cx="-698.69" cy="1944.51" r="196.42" gradientTransform="matrix(2.01, -0.32, 2.01, 0.32, -2521.21, -151.23)" xlink:href="#radial-gradient-2"/><linearGradient id="linear-gradient-12" x1="-895.1" y1="1944.51" x2="-502.27" y2="1944.51" gradientTransform="matrix(2.01, -0.32, 2.01, 0.32, -2521.21, -151.23)" xlink:href="#linear-gradient"/><radialGradient id="radial-gradient-24" cx="-963.32" cy="1984.95" r="325.06" gradientTransform="matrix(2.48, -0.32, 2.48, 0.32, -2883.97, -330.65)" xlink:href="#radial-gradient"/><radialGradient id="radial-gradient-25" cx="-961.64" cy="2209.92" r="197.43" gradientTransform="matrix(2.48, -0.32, 2.48, 0.32, -2883.97, -330.65)" xlink:href="#radial-gradient-2"/><linearGradient id="linear-gradient-13" x1="-1159.06" y1="2209.92" x2="-764.21" y2="2209.92" gradientTransform="matrix(2.48, -0.32, 2.48, 0.32, -2883.97, -330.65)" xlink:href="#linear-gradient"/><radialGradient id="radial-gradient-26" cx="-1230.29" cy="2215.56" r="327.06" gradientTransform="matrix(3.4, -0.32, 3.4, 0.32, -3895.79, -695.95)" xlink:href="#radial-gradient"/><radialGradient id="radial-gradient-27" cx="-1228.6" cy="2441.92" r="198.64" gradientTransform="matrix(3.4, -0.32, 3.4, 0.32, -3895.79, -695.95)" xlink:href="#radial-gradient-2"/><linearGradient id="linear-gradient-14" x1="-1427.23" y1="2441.92" x2="-1029.96" y2="2441.92" gradientTransform="matrix(3.4, -0.32, 3.4, 0.32, -3895.79, -695.95)" xlink:href="#linear-gradient"/></defs><g style="isolation:isolate"><g id="Layer_1" data-name="Layer 1"><g style="clip-path:url(#clip-path)"><g style="opacity:0.42;mix-blend-mode:overlay"><polygon points="1661.74 419.6 1092.68 1018.05 1094.28 1018.09 1663.35 419.64 1661.74 419.6" style="fill:#fff"/><polygon points="1663.09 435.53 1663.07 437.3 1110.35 1018.54 1108.74 1018.5 1663.09 435.53" style="fill:#fff"/><polygon points="1662.81 453.17 1662.79 454.94 1126.41 1019 1124.81 1018.96 1662.81 453.17" style="fill:#fff"/><polygon points="1662.54 470.79 1662.51 472.56 1142.46 1019.46 1140.86 1019.42 1662.54 470.79" style="fill:#fff"/><polygon points="1662.26 488.45 1662.23 490.2 1158.53 1019.92 1156.92 1019.88 1662.26 488.45" style="fill:#fff"/><polygon points="1661.98 506.09 1661.95 507.86 1174.6 1020.38 1172.99 1020.34 1661.98 506.09" style="fill:#fff"/><polygon points="1661.7 523.75 1661.67 525.5 1190.66 1020.84 1189.06 1020.8 1661.7 523.75" style="fill:#fff"/><polygon points="1661.42 541.37 1661.39 543.14 1206.71 1021.3 1205.11 1021.24 1661.42 541.37" style="fill:#fff"/><polygon points="1661.14 559.03 1661.11 560.78 1222.78 1021.74 1221.17 1021.7 1661.14 559.03" style="fill:#fff"/><polygon points="1660.86 576.67 1660.83 578.44 1238.85 1022.2 1237.24 1022.16 1660.86 576.67" style="fill:#fff"/><polygon points="1660.58 594.33 1660.55 596.08 1254.91 1022.66 1253.31 1022.62 1660.58 594.33" style="fill:#fff"/><polygon points="1660.3 611.95 1660.27 613.72 1270.96 1023.12 1269.36 1023.08 1660.3 611.95" style="fill:#fff"/><polygon points="1660.02 629.59 1659.99 631.36 1287.03 1023.58 1285.42 1023.54 1660.02 629.59" style="fill:#fff"/><polygon points="1659.74 647.25 1659.71 649 1303.1 1024.04 1301.49 1024 1659.74 647.25" style="fill:#fff"/><polygon points="1659.46 664.89 1659.44 666.66 1319.16 1024.5 1317.56 1024.46 1659.46 664.89" style="fill:#fff"/><polygon points="1659.18 682.53 1659.16 684.28 1335.21 1024.96 1333.61 1024.92 1659.18 682.53" style="fill:#fff"/><polygon points="1658.91 700.17 1658.88 701.94 1351.28 1025.42 1349.67 1025.36 1658.91 700.17" style="fill:#fff"/><polygon points="1658.63 717.81 1658.6 719.58 1367.35 1025.86 1365.74 1025.82 1658.63 717.81" style="fill:#fff"/><polygon points="1658.35 735.47 1658.32 737.22 1383.41 1026.32 1381.81 1026.28 1658.35 735.47" style="fill:#fff"/><polygon points="1658.07 753.09 1658.04 754.86 1399.46 1026.78 1397.86 1026.74 1658.07 753.09" style="fill:#fff"/><polygon points="1657.79 770.75 1657.76 772.5 1415.53 1027.24 1413.92 1027.2 1657.79 770.75" style="fill:#fff"/><polygon points="1657.51 788.38 1657.48 790.14 1431.6 1027.7 1429.99 1027.66 1657.51 788.38" style="fill:#fff"/><polygon points="1657.23 806.03 1657.2 807.8 1447.66 1028.16 1446.06 1028.12 1657.23 806.03" style="fill:#fff"/><polygon points="1656.95 823.67 1656.92 825.42 1463.71 1028.62 1462.11 1028.58 1656.95 823.67" style="fill:#fff"/><polygon points="1656.67 841.32 1656.64 843.08 1479.78 1029.08 1478.17 1029.04 1656.67 841.32" style="fill:#fff"/><polygon points="1656.39 858.96 1656.37 860.74 1495.85 1029.54 1494.24 1029.48 1656.39 858.96" style="fill:#fff"/><polygon points="1656.11 876.6 1656.09 878.36 1511.91 1029.98 1510.31 1029.94 1656.11 876.6" style="fill:#fff"/><polygon points="1655.84 894.24 1655.81 896 1527.96 1030.44 1526.36 1030.4 1655.84 894.24" style="fill:#fff"/><polygon points="1655.56 911.88 1655.53 913.64 1544.03 1030.9 1542.42 1030.86 1655.56 911.88" style="fill:#fff"/><polygon points="1655.28 929.52 1655.25 931.3 1560.1 1031.36 1558.49 1031.32 1655.28 929.52" style="fill:#fff"/><polygon points="1655 947.16 1654.97 948.92 1576.14 1031.82 1574.54 1031.78 1655 947.16" style="fill:#fff"/><polygon points="1654.72 964.8 1654.69 966.58 1592.21 1032.28 1590.61 1032.24 1654.72 964.8" style="fill:#fff"/><polygon points="1654.44 982.46 1654.41 984.22 1608.28 1032.74 1606.67 1032.7 1654.44 982.46" style="fill:#fff"/><polygon points="1654.16 1000.12 1654.13 1001.88 1624.35 1033.2 1622.74 1033.16 1654.16 1000.12" style="fill:#fff"/><polygon points="1653.88 1017.73 1653.85 1019.48 1640.39 1033.64 1638.79 1033.6 1653.88 1017.73" style="fill:#fff"/></g><g style="opacity:0.42;mix-blend-mode:overlay"><polygon points="942.16 199.14 328.83 752.13 328.82 750.53 942.15 197.53 942.16 199.14" style="fill:#fff"/><polygon points="926.26 197.36 924.49 197.34 328.8 734.46 328.8 736.06 926.26 197.36" style="fill:#fff"/><polygon points="908.62 197.18 906.85 197.16 328.76 718.38 328.76 719.99 908.62 197.18" style="fill:#fff"/><polygon points="891 196.99 889.23 196.97 328.73 702.33 328.73 703.93 891 196.99" style="fill:#fff"/><polygon points="873.34 196.8 871.58 196.78 328.69 686.25 328.7 687.86 873.34 196.8" style="fill:#fff"/><polygon points="855.7 196.61 853.92 196.59 328.66 670.18 328.66 671.79 855.7 196.61" style="fill:#fff"/><polygon points="838.04 196.42 836.28 196.4 328.63 654.11 328.63 655.71 838.04 196.42" style="fill:#fff"/><polygon points="820.42 196.23 818.64 196.21 328.59 638.05 328.62 639.66 820.42 196.23" style="fill:#fff"/><polygon points="802.76 196.04 801 196.02 328.58 621.98 328.58 623.59 802.76 196.04" style="fill:#fff"/><polygon points="785.12 195.85 783.34 195.84 328.55 605.9 328.55 607.51 785.12 195.85" style="fill:#fff"/><polygon points="767.46 195.66 765.7 195.65 328.51 589.83 328.51 591.44 767.46 195.66" style="fill:#fff"/><polygon points="749.83 195.48 748.06 195.46 328.48 573.78 328.48 575.38 749.83 195.48" style="fill:#fff"/><polygon points="732.19 195.29 730.42 195.27 328.44 557.7 328.45 559.31 732.19 195.29" style="fill:#fff"/><polygon points="714.53 195.1 712.77 195.08 328.41 541.63 328.41 543.24 714.53 195.1" style="fill:#fff"/><polygon points="696.89 194.91 695.12 194.89 328.38 525.55 328.38 527.16 696.89 194.91" style="fill:#fff"/><polygon points="679.25 194.72 677.49 194.7 328.34 509.5 328.35 511.11 679.25 194.72" style="fill:#fff"/><polygon points="661.61 194.53 659.83 194.51 328.31 493.43 328.33 495.03 661.61 194.53" style="fill:#fff"/><polygon points="643.97 194.34 642.19 194.32 328.3 477.35 328.3 478.96 643.97 194.34" style="fill:#fff"/><polygon points="626.31 194.16 624.55 194.14 328.26 461.28 328.26 462.89 626.31 194.16" style="fill:#fff"/><polygon points="608.68 193.97 606.91 193.95 328.23 445.22 328.23 446.83 608.68 193.97" style="fill:#fff"/><polygon points="591.02 193.78 589.27 193.76 328.19 429.15 328.19 430.76 591.02 193.78" style="fill:#fff"/><polygon points="573.38 193.59 571.63 193.57 328.16 413.08 328.16 414.68 573.38 193.59" style="fill:#fff"/><polygon points="555.74 193.4 553.97 193.38 328.13 397 328.13 398.61 555.74 193.4" style="fill:#fff"/><polygon points="538.1 193.21 536.34 193.19 328.09 380.95 328.09 382.56 538.1 193.21" style="fill:#fff"/><polygon points="520.44 193.02 518.68 193 328.06 364.87 328.06 366.48 520.44 193.02" style="fill:#fff"/><polygon points="502.8 192.83 501.02 192.81 328.02 348.8 328.05 350.41 502.8 192.83" style="fill:#fff"/><polygon points="485.16 192.65 483.4 192.63 328.01 332.73 328.01 334.33 485.16 192.65" style="fill:#fff"/><polygon points="467.52 192.46 465.76 192.44 327.98 316.67 327.98 318.28 467.52 192.46" style="fill:#fff"/><polygon points="449.88 192.27 448.12 192.25 327.94 300.6 327.94 302.21 449.88 192.27" style="fill:#fff"/><polygon points="432.23 192.08 430.46 192.06 327.91 284.52 327.91 286.13 432.23 192.08" style="fill:#fff"/><polygon points="414.59 191.89 412.84 191.87 327.88 268.47 327.88 270.08 414.59 191.89" style="fill:#fff"/><polygon points="396.95 191.7 395.18 191.68 327.84 252.4 327.84 254 396.95 191.7" style="fill:#fff"/><polygon points="379.29 191.51 377.54 191.49 327.81 236.32 327.81 237.93 379.29 191.51" style="fill:#fff"/><polygon points="361.63 191.32 359.88 191.31 327.77 220.25 327.78 221.86 361.63 191.32" style="fill:#fff"/><polygon points="344.03 191.13 342.27 191.12 327.76 204.19 327.76 205.8 344.03 191.13" style="fill:#fff"/></g><g style="opacity:0.43"><rect x="801.65" y="62.63" width="286.13" height="286.13" rx="24.96" transform="translate(765.9 -389.66) rotate(45)" style="stroke-miterlimit:10;stroke-width:0.75px;opacity:0.68;mix-blend-mode:overlay;fill:url(#radial-gradient);stroke:url(#radial-gradient-2)"/><rect x="801.65" y="62.63" width="286.13" height="286.13" rx="24.96" transform="translate(765.9 -389.66) rotate(45)" style="fill:none;stroke-miterlimit:10;stroke-width:0.75px;mix-blend-mode:color-dodge;stroke:url(#linear-gradient)"/><rect x="790.74" y="275.87" width="286.13" height="286.13" rx="24.96" transform="translate(913.48 -319.49) rotate(45)" style="stroke-miterlimit:10;stroke-width:0.75px;opacity:0.68;mix-blend-mode:overlay;fill:url(#radial-gradient-3);stroke:url(#radial-gradient-4)"/><rect x="790.74" y="275.87" width="286.13" height="286.13" rx="24.96" transform="translate(913.48 -319.49) rotate(45)" style="fill:none;stroke-miterlimit:10;stroke-width:0.75px;mix-blend-mode:color-dodge;stroke:url(#linear-gradient-2)"/><rect x="1003.98" y="264.96" width="286.13" height="286.13" rx="24.96" transform="translate(968.22 -473.47) rotate(45)" style="stroke-miterlimit:10;stroke-width:0.75px;opacity:0.68;mix-blend-mode:overlay;fill:url(#radial-gradient-5);stroke:url(#radial-gradient-6)"/><rect x="1003.98" y="264.96" width="286.13" height="286.13" rx="24.96" transform="translate(968.22 -473.47) rotate(45)" style="fill:none;stroke-miterlimit:10;stroke-width:0.75px;mix-blend-mode:color-dodge;stroke:url(#linear-gradient-3)"/><rect x="1103.79" y="-37.18" width="286.13" height="286.13" rx="24.96" transform="translate(783.81 -632.54) rotate(45)" style="stroke-miterlimit:10;stroke-width:0.75px;opacity:0.68;mix-blend-mode:overlay;fill:url(#radial-gradient-7);stroke:url(#radial-gradient-8)"/><rect x="1103.79" y="-37.18" width="286.13" height="286.13" rx="24.96" transform="translate(783.81 -632.54) rotate(45)" style="fill:none;stroke-miterlimit:10;stroke-width:0.75px;mix-blend-mode:color-dodge;stroke:url(#linear-gradient-4)"/><rect x="928.2" y="97.33" width="811.84" height="129.8" rx="24.96" transform="translate(849.21 -677.74) rotate(45)" style="stroke-miterlimit:10;stroke-width:0.75px;opacity:0.68;mix-blend-mode:overlay;fill:url(#radial-gradient-9);stroke:url(#radial-gradient-10)"/><rect x="928.2" y="97.33" width="811.84" height="129.8" rx="24.96" transform="translate(849.21 -677.74) rotate(45)" style="fill:none;stroke-miterlimit:10;stroke-width:0.75px;mix-blend-mode:color-dodge;stroke:url(#linear-gradient-5)"/><rect x="602.54" y="107.29" width="1002.32" height="129.8" rx="24.96" transform="translate(788.77 -511.89) rotate(45)" style="stroke-miterlimit:10;stroke-width:0.75px;opacity:0.68;mix-blend-mode:overlay;fill:url(#radial-gradient-11);stroke:url(#radial-gradient-12)"/><rect x="602.54" y="107.29" width="1002.32" height="129.8" rx="24.96" transform="translate(788.77 -511.89) rotate(45)" style="fill:none;stroke-miterlimit:10;stroke-width:0.75px;mix-blend-mode:color-dodge;stroke:url(#linear-gradient-6)"/><rect x="394.68" y="313.12" width="1375.69" height="129.8" rx="24.96" transform="translate(928.11 -436.63) rotate(45)" style="stroke-miterlimit:10;stroke-width:0.75px;opacity:0.68;mix-blend-mode:overlay;fill:url(#radial-gradient-13);stroke:url(#radial-gradient-14)"/><rect x="394.68" y="313.12" width="1375.69" height="129.8" rx="24.96" transform="translate(928.11 -436.63) rotate(45)" style="fill:none;stroke-miterlimit:10;stroke-width:0.75px;mix-blend-mode:color-dodge;stroke:url(#linear-gradient-7)"/></g><g style="opacity:0.49"><rect x="223.93" y="510.68" width="285.31" height="285.31" rx="24.89" transform="translate(507.57 1592.63) rotate(-135)" style="stroke-miterlimit:10;stroke-width:0.75px;opacity:0.68;mix-blend-mode:overlay;fill:url(#radial-gradient-15);stroke:url(#radial-gradient-16)"/><rect x="223.93" y="510.68" width="285.31" height="285.31" rx="24.89" transform="translate(507.57 1592.63) rotate(-135)" style="fill:none;stroke-miterlimit:10;stroke-width:0.75px;mix-blend-mode:color-dodge;stroke:url(#linear-gradient-8)"/><rect x="234.81" y="298.05" width="285.31" height="285.31" rx="24.89" transform="translate(676.49 1237.34) rotate(-135)" style="mix-blend-mode:screen;fill:url(#radial-gradient-17)"/><rect x="234.81" y="298.05" width="285.31" height="285.31" rx="24.89" transform="translate(676.49 1237.34) rotate(-135)" style="fill:none;stroke-miterlimit:10;stroke-width:0.75px;mix-blend-mode:color-dodge;stroke:url(#linear-gradient-9)"/><rect x="22.18" y="308.93" width="285.31" height="285.31" rx="24.89" transform="translate(305.82 1105.57) rotate(-135)" style="stroke-miterlimit:10;stroke-width:0.75px;opacity:0.68;mix-blend-mode:overlay;fill:url(#radial-gradient-18);stroke:url(#radial-gradient-19)"/><rect x="22.18" y="308.93" width="285.31" height="285.31" rx="24.89" transform="translate(305.82 1105.57) rotate(-135)" style="fill:none;stroke-miterlimit:10;stroke-width:0.75px;mix-blend-mode:color-dodge;stroke:url(#linear-gradient-10)"/><rect x="-77.34" y="610.2" width="285.31" height="285.31" rx="24.89" transform="translate(-77.11 1549.5) rotate(-135)" style="stroke-miterlimit:10;stroke-width:0.75px;opacity:0.68;mix-blend-mode:overlay;fill:url(#radial-gradient-20);stroke:url(#radial-gradient-21)"/><rect x="-77.34" y="610.2" width="285.31" height="285.31" rx="24.89" transform="translate(-77.11 1549.5) rotate(-135)" style="fill:none;stroke-miterlimit:10;stroke-width:0.75px;mix-blend-mode:color-dodge;stroke:url(#linear-gradient-11)"/><rect x="-426.47" y="631.95" width="809.53" height="129.43" rx="24.89" transform="translate(-185.93 1392.05) rotate(-135)" style="stroke-miterlimit:10;stroke-width:0.75px;opacity:0.68;mix-blend-mode:overlay;fill:url(#radial-gradient-22);stroke:url(#radial-gradient-23)"/><rect x="-426.47" y="631.95" width="809.53" height="129.43" rx="24.89" transform="translate(-185.93 1392.05) rotate(-135)" style="fill:none;stroke-miterlimit:10;stroke-width:0.75px;mix-blend-mode:color-dodge;stroke:url(#linear-gradient-12)"/><rect x="-291.68" y="622.02" width="999.47" height="129.43" rx="24.89" transform="translate(213.32 1537.56) rotate(-135)" style="stroke-miterlimit:10;stroke-width:0.75px;opacity:0.68;mix-blend-mode:overlay;fill:url(#radial-gradient-24);stroke:url(#radial-gradient-25)"/><rect x="-291.68" y="622.02" width="999.47" height="129.43" rx="24.89" transform="translate(213.32 1537.56) rotate(-135)" style="fill:none;stroke-miterlimit:10;stroke-width:0.75px;mix-blend-mode:color-dodge;stroke:url(#linear-gradient-13)"/><rect x="-456.71" y="416.78" width="1371.77" height="129.43" rx="24.89" transform="translate(394.5 1202.12) rotate(-135)" style="stroke-miterlimit:10;stroke-width:0.75px;opacity:0.68;mix-blend-mode:overlay;fill:url(#radial-gradient-26);stroke:url(#radial-gradient-27)"/><rect x="-456.71" y="416.78" width="1371.77" height="129.43" rx="24.89" transform="translate(394.5 1202.12) rotate(-135)" style="fill:none;stroke-miterlimit:10;stroke-width:0.75px;mix-blend-mode:color-dodge;stroke:url(#linear-gradient-14)"/></g></g></g></g></svg>